<svg id="Capa_1" enable-background="new 0 0 509.749 509.749" height="512" viewBox="0 0 509.749 509.749" width="512" xmlns="http://www.w3.org/2000/svg"><g><path d="m295.546 412.309c4.143 0 7.5-3.357 7.5-7.5v-223.287c8.079-4.371 13.579-12.922 13.579-22.735 0-13.778-10.842-25.069-24.442-25.793-1.314-17.935-10.914-34.115-26.252-43.875-1.252-.797-2.553-1.498-3.878-2.141v-16.116c0-10.991-8.941-19.933-19.933-19.933h-24.118v-24.371c0-14.643-11.914-26.558-26.558-26.558h-38.065c-14.644 0-26.558 11.914-26.558 26.558v24.371h-24.119c-10.991 0-19.933 8.941-19.933 19.933v16.115c-1.324.644-2.625 1.344-3.877 2.141-15.339 9.76-24.939 25.941-26.253 43.875-13.6.725-24.441 12.016-24.441 25.793 0 4.596 1.212 8.912 3.325 12.656v58.897c0 4.143 3.357 7.5 7.5 7.5s7.5-3.357 7.5-7.5v-46.837c2.377.723 4.896 1.116 7.507 1.116h17.794v188.549c0 6.976-5.675 12.65-12.65 12.65s-12.65-5.675-12.65-12.65v-110.866c0-4.143-3.357-7.5-7.5-7.5s-7.5 3.357-7.5 7.5v110.866c0 8.658 4.003 16.396 10.253 21.47v66.546c-8.078 4.372-13.578 12.922-13.578 22.734 0 14.244 11.588 25.832 25.832 25.832h236.763c14.244 0 25.832-11.588 25.832-25.832 0-9.812-5.5-18.363-13.579-22.734v-24.411c0-4.143-3.357-7.5-7.5-7.5s-7.5 3.357-7.5 7.5v21.314h-231.271v-57.379c.791.068 1.589.111 2.397.111 15.246 0 27.65-12.404 27.65-27.65v-188.549h56.238v20.601c0 16.51 9.174 31.354 23.94 38.737l15.31 7.655c1.365.682 2.213 2.054 2.213 3.58v65.527c0 14.792 12.034 26.826 26.826 26.826s26.826-12.034 26.826-26.826v-22.48c0-4.143-3.357-7.5-7.5-7.5s-7.5 3.357-7.5 7.5v22.48c0 6.521-5.306 11.826-11.826 11.826s-11.826-5.306-11.826-11.826v-65.527c0-7.245-4.025-13.758-10.505-16.997l-15.309-7.654c-9.653-4.827-15.649-14.529-15.649-25.321v-20.601h65.115v81.658c0 4.143 3.357 7.5 7.5 7.5s7.5-3.357 7.5-7.5v-81.658h49.868v220.19c.002 4.143 3.359 7.5 7.502 7.5zm-4.753 82.44h-236.763c-5.973 0-10.832-4.859-10.832-10.832s4.859-10.831 10.832-10.831h236.763c5.973 0 10.832 4.858 10.832 10.831s-4.86 10.832-10.832 10.832zm10.832-335.962c0 5.973-4.859 10.832-10.832 10.832h-21.099v-21.664h21.099c5.972 0 10.832 4.859 10.832 10.832zm-121.714 10.832v-21.664h74.783v21.664zm49.267-71.539v34.875h-71.116v-34.875zm47.931 34.875h-32.93v-34.875h1.02c4.499 0 8.884 1.277 12.68 3.692 10.971 6.983 17.944 18.428 19.23 31.183zm-135.288-106.397c0-6.373 5.185-11.558 11.558-11.558h38.065c6.373 0 11.558 5.185 11.558 11.558v24.371h-61.181zm-44.052 44.304c0-2.72 2.213-4.933 4.933-4.933h139.418c2.72 0 4.933 2.213 4.933 4.933v12.283c-.617-.03-1.234-.066-1.854-.066h-145.574c-.621 0-1.238.036-1.855.066v-12.283zm-10.823 30.91c3.795-2.416 8.179-3.692 12.679-3.692h43.438v34.875h-75.35c1.285-12.755 8.258-24.2 19.233-31.183zm-43.748 57.015c0-5.973 4.859-10.832 10.832-10.832h110.881v21.664h-110.881c-5.973 0-10.832-4.86-10.832-10.832z"/><path d="m121.556 388.083v21.685c0 14.792 12.034 26.826 26.826 26.826 14.793 0 26.827-12.034 26.827-26.826v-21.685c0-14.792-12.034-26.826-26.827-26.826-14.792 0-26.826 12.034-26.826 26.826zm38.654 0v21.685c0 6.521-5.306 11.826-11.827 11.826s-11.826-5.306-11.826-11.826v-21.685c0-6.521 5.306-11.826 11.826-11.826 6.521 0 11.827 5.306 11.827 11.826z"/><path d="m181.528 26.266h-4.741c-4.143 0-7.5 3.357-7.5 7.5s3.357 7.5 7.5 7.5h4.741c4.143 0 7.5-3.357 7.5-7.5s-3.357-7.5-7.5-7.5z"/><path d="m292.834 37.873c.313 0 .63-.02.949-.06l181.207-22.871c4.109-.52 7.021-4.271 6.502-8.381s-4.266-7.017-8.381-6.502l-181.207 22.872c-4.109.52-7.021 4.271-6.502 8.381.478 3.79 3.708 6.561 7.432 6.561z"/><path d="m474.99 85.985-181.207-22.872c-4.104-.513-7.862 2.393-8.381 6.502s2.393 7.861 6.502 8.381l181.207 22.872c.319.04.636.06.949.06 3.723 0 6.953-2.771 7.432-6.562.518-4.11-2.393-7.862-6.502-8.381z"/></g></svg>