<svg height="512pt" viewBox="0 -36 512 512" width="512pt" xmlns="http://www.w3.org/2000/svg"><path d="m477 70h-121v-35c0-19.300781-15.699219-35-35-35h-130c-19.300781 0-35 15.699219-35 35v35h-121c-19.300781 0-35 15.699219-35 35v300c0 19.300781 15.699219 35 35 35h442c19.300781 0 35-15.699219 35-35v-300c0-19.300781-15.699219-35-35-35zm-291-35c0-2.757812 2.242188-5 5-5h130c2.757812 0 5 2.242188 5 5v35h-140zm296 370c0 2.757812-2.242188 5-5 5h-442c-2.757812 0-5-2.242188-5-5v-300c0-2.757812 2.242188-5 5-5h442c2.757812 0 5 2.242188 5 5zm0 0"/><path d="m256 135c-66.167969 0-120 53.832031-120 120s53.832031 120 120 120 120-53.832031 120-120-53.832031-120-120-120zm0 210c-49.625 0-90-40.375-90-90s40.375-90 90-90 90 40.375 90 90-40.375 90-90 90zm0 0"/><path d="m437 160c0 8.285156-6.714844 15-15 15s-15-6.714844-15-15 6.714844-15 15-15 15 6.714844 15 15zm0 0"/></svg>